<svg xmlns="http://www.w3.org/2000/svg" version="1.1" viewBox="0 0 512 64" width="512" height="64">
  <g id="shape-1">
    <path fill="#090d0e" d="M 50 32 A 18 18 0 1 1 14 32 A 18 18 0 1 1 50 32 Z M 32 10 L 24 22 L 40 22 Z" />
  </g>
  <g id="shape-2" transform="translate(64 0)">
    <path fill="#090d0e" d="M 50 32 A 18 18 0 1 1 14 32 A 18 18 0 1 1 50 32 Z M 24 42 L 40 42 L 32 54 Z" />
  </g>
  <g id="shape-3" transform="translate(128 0)">
    <path fill="#090d0e" d="M 50 32 A 18 18 0 1 1 14 32 A 18 18 0 1 1 50 32 Z M 10 32 L 22 24 L 22 40 Z" />
  </g>
  <g id="shape-4" transform="translate(192 0)">
    <path fill="#090d0e" d="M 50 32 A 18 18 0 1 1 14 32 A 18 18 0 1 1 50 32 Z M 54 32 L 42 24 L 42 40 Z" />
  </g>
  <g id="shape-5" transform="translate(256 0)">
    <path fill="#090d0e" d="M 50 32 A 18 18 0 1 1 14 32 A 18 18 0 1 1 50 32 Z M 32 20 L 24 32 L 40 32 Z" />
  </g>
  <g id="shape-6" transform="translate(320 0)">
    <path fill="#090d0e" d="M 50 32 A 18 18 0 1 1 14 32 A 18 18 0 1 1 50 32 Z M 24 32 L 40 32 L 32 44 Z" />
  </g>
  <g id="shape-7" transform="translate(384 0)">
    <path fill="#090d0e" d="M 50 32 A 18 18 0 1 1 14 32 A 18 18 0 1 1 50 32 Z M 24 22 L 40 22 L 32 14 Z M 24 42 L 40 42 L 32 50 Z" />
  </g>
  <g id="shape-8" transform="translate(448 0)">
    <path fill="#090d0e" d="M 50 32 A 18 18 0 1 1 14 32 A 18 18 0 1 1 50 32 Z" />
  </g>
</svg>
