<svg xmlns="http://www.w3.org/2000/svg" version="1.1" viewBox="0 0 446 54" width="446" height="54">
  <path id="shape-1" fill="#090d0e" d="M 42.3723 41.5322 A 1.64 1.64 0 0 1 40.7294 43.1693 L 7.0694 43.1106 A 1.64 1.64 0 0 1 5.4323 41.4677 L 5.4877 9.7078 A 1.64 1.64 0 0 1 7.1306 8.0707 L 40.7906 8.1294 A 1.64 1.64 0 0 1 42.4277 9.7723 L 42.3723 41.5322 Z M 39.55 13.47 A 1.62 1.62 0 0 0 37.93 11.85 L 10.01 11.85 A 1.62 1.62 0 0 0 8.39 13.47 L 8.39 37.91 A 1.62 1.62 0 0 0 10.01 39.53 L 37.93 39.53 A 1.62 1.62 0 0 0 39.55 37.91 L 39.55 13.47 Z" />
  <path id="shape-2" fill="#090d0e" d="M 98.0866 41.7788 A 1.24 1.24 0 0 1 96.851 43.0232 L 64.3512 43.1366 A 1.24 1.24 0 0 1 63.1068 41.901 L 62.9934 9.4012 A 1.24 1.24 0 0 1 64.229 8.1568 L 96.7288 8.0434 A 1.24 1.24 0 0 1 97.9732 9.279 L 98.0866 41.7788 Z M 95.054 13.0137 A 1.42 1.42 0 0 0 93.6266 11.6012 L 67.2669 11.7392 A 1.42 1.42 0 0 0 65.8544 13.1666 L 65.986 38.3063 A 1.42 1.42 0 0 0 67.4134 39.7188 L 93.7731 39.5808 A 1.42 1.42 0 0 0 95.1856 38.1534 L 95.054 13.0137 Z" />
  <path id="shape-3" fill="#090d0e" d="M 156.06 41.78 A 1.34 1.34 0 0 1 154.72 43.12 L 120.52 43.12 A 1.34 1.34 0 0 1 119.18 41.78 L 119.18 9.52 A 1.34 1.34 0 0 1 120.52 8.18 L 154.72 8.18 A 1.34 1.34 0 0 1 156.06 9.52 L 156.06 41.78 Z M 153.2329 13.4147 A 1.59 1.59 0 0 0 151.6484 11.8191 L 123.5486 11.721 A 1.59 1.59 0 0 0 121.9531 13.3055 L 121.8671 37.9253 A 1.59 1.59 0 0 0 123.4516 39.5209 L 151.5514 39.619 A 1.59 1.59 0 0 0 153.1469 38.0345 L 153.2329 13.4147 Z" />
  <path id="shape-4" fill="#090d0e" d="M 213.4653 41.276 A 1.73 1.73 0 0 1 211.7413 43.012 L 178.5815 43.1278 A 1.73 1.73 0 0 1 176.8455 41.4038 L 176.7347 9.684 A 1.73 1.73 0 0 1 178.4587 7.948 L 211.6185 7.8322 A 1.73 1.73 0 0 1 213.3545 9.5562 L 213.4653 41.276 Z M 210.63 12.81 A 1.29 1.29 0 0 0 209.34 11.52 L 181.00 11.52 A 1.29 1.29 0 0 0 179.71 12.81 L 179.71 38.26 A 1.29 1.29 0 0 0 181.00 39.55 L 209.34 39.55 A 1.29 1.29 0 0 0 210.63 38.26 L 210.63 12.81 Z" />
  <path id="shape-5" fill="#090d0e" d="M 269.2012 41.7703 A 1.13 1.13 0 0 1 268.0693 42.8983 L 235.5693 42.8416 A 1.13 1.13 0 0 1 234.4413 41.7096 L 234.4988 8.7897 A 1.13 1.13 0 0 1 235.6307 7.6617 L 268.1307 7.7184 A 1.13 1.13 0 0 1 269.2587 8.8504 L 269.2012 41.7703 Z M 266.2924 12.5053 A 1.23 1.23 0 0 0 265.0646 11.2731 L 238.5646 11.2269 A 1.23 1.23 0 0 0 237.3325 12.4547 L 237.2876 38.1947 A 1.23 1.23 0 0 0 238.5154 39.4269 L 265.0154 39.4731 A 1.23 1.23 0 0 0 266.2475 38.2453 L 266.2924 12.5053 Z" />
  <path id="shape-6" fill="#090d0e" d="M 326.4384 41.3385 A 1.43 1.43 0 0 1 325.0109 42.771 L 291.8109 42.8289 A 1.43 1.43 0 0 1 290.3784 41.4014 L 290.3216 8.8615 A 1.43 1.43 0 0 1 291.7491 7.429 L 324.9491 7.3711 A 1.43 1.43 0 0 1 326.3816 8.7986 L 326.4384 41.3385 Z M 323.5576 12.9372 A 1.85 1.85 0 0 0 321.7011 11.0937 L 295.1013 11.1865 A 1.85 1.85 0 0 0 293.2578 13.043 L 293.3424 37.3028 A 1.85 1.85 0 0 0 295.1989 39.1463 L 321.7987 39.0535 A 1.85 1.85 0 0 0 323.6422 37.197 L 323.5576 12.9372 Z" />
  <path id="shape-7" fill="#090d0e" d="M 384.2911 41.7612 A 1.14 1.14 0 0 1 383.1492 42.8992 L 349.6492 42.8407 A 1.14 1.14 0 0 1 348.5112 41.6988 L 348.5689 8.6588 A 1.14 1.14 0 0 1 349.7108 7.5208 L 383.2108 7.5793 A 1.14 1.14 0 0 1 384.3488 8.7212 L 384.2911 41.7612 Z M 381.6919 12.7064 A 1.42 1.42 0 0 0 380.2744 11.2839 L 352.9145 11.2361 A 1.42 1.42 0 0 0 351.492 12.6537 L 351.4481 37.8136 A 1.42 1.42 0 0 0 352.8656 39.2361 L 380.2255 39.2839 A 1.42 1.42 0 0 0 381.648 37.8663 L 381.6919 12.7064 Z" />
  <path id="shape-8" fill="#090d0e" d="M 440.9968 25.3109 A 2.28 2.28 0 0 1 440.9799 28.5353 L 425.3707 43.9818 A 2.28 2.28 0 0 1 422.1464 43.9649 L 405.7432 27.3891 A 2.28 2.28 0 0 1 405.7601 24.1647 L 421.3693 8.7182 A 2.28 2.28 0 0 1 424.5936 8.7351 L 440.9968 25.3109 Z M 436.34 28.41 A 2.11 2.11 0 0 0 436.34 25.43 L 424.37 13.46 A 2.11 2.11 0 0 0 421.39 13.46 L 410.50 24.35 A 2.11 2.11 0 0 0 410.50 27.33 L 422.48 39.30 A 2.11 2.11 0 0 0 425.46 39.30 L 436.34 28.41 Z" />
</svg>
